<svg version="1.1" xmlns="http://www.w3.org/2000/svg" xmlns:xlink="http://www.w3.org/1999/xlink" width="46.70635" height="54.06386" viewBox="0,0,46.70635,54.06386"><g transform="translate(-215.87956,-142.35281)"><g data-paper-data="{&quot;isPaintingLayer&quot;:true}" fill-rule="nonzero" stroke="none" stroke-width="0.5" stroke-linecap="butt" stroke-linejoin="miter" stroke-miterlimit="10" stroke-dasharray="" stroke-dashoffset="0" style="mix-blend-mode: normal"><path d="M228.08334,146.58334c0,-2.20914 1.79086,-4 4,-4c2.20914,0 4,1.79086 4,4c0,2.20914 -1.79086,4 -4,4c-2.20914,0 -4,-1.79086 -4,-4z" fill="#fffa73"/><path d="M241.58334,146.58334c0,-2.20914 1.79086,-4 4,-4c2.20914,0 4,1.79086 4,4c0,2.20914 -1.79086,4 -4,4c-2.20914,0 -4,-1.79086 -4,-4z" fill="#fffa73"/><path d="M232.35153,157.82989c-0.2045,1.45714 -0.9446,3.55571 -0.03205,4.63206c0.38092,0.4493 1.47238,0.41212 1.97199,0.4392c2.14857,0.11647 4.60229,0.04336 6.73559,-0.191c1.38509,-0.30269 3.50327,0.02944 4.76323,-0.61826c1.48381,-0.76277 1.96721,-5.14909 0.39168,-5.74141c-1.12793,-0.42405 -3.0483,0.04953 -4.23197,0.04953c-2.91815,-0.00562 -5.66268,1.02668 -8.50697,1.39421l-0.31448,0.15215c0,0 -0.45546,0.18218 -0.77702,-0.11647zM232.25337,156.78533c0.14003,-0.16046 0.31809,-0.23169 0.31809,-0.23169l0.68552,-0.24785c2.91112,-0.34916 5.70582,-1.40068 8.69302,-1.40579c1.42481,0 3.40962,-0.45912 4.76803,0.04953c2.87536,1.07666 2.29877,7.07829 -0.20833,8.45858c-1.43851,0.79198 -3.66932,0.42709 -5.23676,0.78174c-2.35745,0.26467 -8.34402,1.08986 -10.09242,-0.75181c-1.55694,-1.63998 -0.26732,-4.29022 -0.28052,-6.18804c0,0 0,-0.75 0.75,-0.75c0.3147,0 0.49735,0.13205 0.60336,0.28533z" fill="#000000"/><path d="M248.84303,175.89421l-0.75531,0.09304c-2.85131,0.69805 -6.12341,-0.58485 -8.87501,0.09489c0,0 -0.73214,0.1627 -0.89484,-0.56944c-0.03674,-0.16536 -0.02785,-0.30168 0.00796,-0.41363l-0.62921,-0.00052l-0.76277,0.09675l-1.04647,0.10377l-1.00619,0.00028l-1.13283,0.09418l-1.10237,0.20031l-1.3,0.1l-1.08233,0.19751l-0.8101,0.10148l-1.25541,0.19241l-1.21041,0.30202l-0.78897,0.09991l-0.11541,0.57706v0.41912l-0.09747,0.38987l-0.03082,0.4007l-0.03838,0.11512v0.59786l0.01558,0.02336l-0.01558,0.0701v0.06966l-0.13932,0.55728l-0.02734,0.12306v2.67856l0.09203,0.36809v0.30777l0.07464,0.29857v0.42764l0.03838,0.11512l0.00752,0.09774l0.04613,0.08649l0.16666,0.66666v0.06096l0.02609,0.05509l0.155,0.775l0.08568,0.34272l0.04394,0.08787l0.03903,0.17566l0.09661,0.1518l0.06079,0.18239l0.14762,0.22143l0.05313,0.14878l0.10281,0.11995l0.5,1l0.07243,0.32596l0.14294,0.30178l0.10101,0.50504l0.14426,0.28853l0.09573,0.04787l0.33145,0.11048l0.28171,0.17928l0.31447,0.11231l0.28341,0.18894l0.14463,0.05785h0.01854l0.24157,0.06039l0.24872,-0.01184l0.59059,0.11812h2.25245l0.29857,0.07464h0.30776l0.36809,0.09203h0.8589l0.24157,0.06039l0.24872,-0.01184l0.59059,0.11811h0.41912l0.24157,0.06039l0.24872,-0.01184l0.59059,0.11812h0.25245l0.29857,0.07464h0.30777l0.36809,0.09203h0.3589l0.38987,0.09747l0.4007,0.03082l0.11513,0.03838h2.1708l0.80547,-0.40274l0.17565,-0.03903l0.15181,-0.09661l1,-0.33333l0.4007,-0.03082l0.38987,-0.09747h2.16666l0.38988,0.09747l0.40069,0.03082l0.5,0.16666l0.28171,0.17927l0.02321,0.00829l0.29817,-0.07454h0.13574l0.04524,-0.18098l0.04613,-0.08649l0.00752,-0.09774l0.33333,-1l0.09661,-0.15181l0.03903,-0.17565l0.08721,-0.17442l0.04329,-0.12985l-0.06109,-0.24436v-0.06966l-0.01558,-0.0701l0.01558,-0.02336v-4.52912l-0.09203,-0.36809v-0.30777l-0.07465,-0.29857v-0.19223l-0.09202,-0.36809v-0.30776l-0.07465,-0.29857v-6.02891c-0.18606,0.1455 -0.40697,0.17311 -0.40697,0.17311zM226.71229,175.01275l1.18958,-0.29798l1.34458,-0.20759l0.78991,-0.09852l1.11767,-0.20249l1.3,-0.1l1.09763,-0.19969l1.26717,-0.10583l0.99381,0.00028l0.95353,-0.09623l0.83723,-0.10325l0.98059,-0.00068l1.13391,0.10231l-0.07273,0.80009c2.64834,-0.27048 5.54398,0.68062 8.16712,0.00958l0.84469,-0.10696c0,0 0.34359,-0.04295 0.59303,0.16298v-1.24641l-0.03838,-0.11513l-0.03082,-0.40069l-0.09747,-0.38988v-1.17021l-0.01558,-0.02336l0.01558,-0.0701v-0.06966l0.13932,-0.55729l0.02734,-0.12305v-0.48988l-0.01558,-0.02336l0.01558,-0.0701v-0.06966l0.13932,-0.55728l0.02734,-0.12306v-0.653l0.09747,-0.38987l0.03082,-0.4007l0.03838,-0.11512v-0.59431l0.09747,-0.38987l0.03082,-0.4007l0.03838,-0.11512v-0.09431l0.04364,-0.17457l-0.01852,-0.17898l0.16667,-1.16667l0.04951,-0.12154v-0.13124l0.09203,-0.36809v-0.3589l0.09747,-0.38987l0.03082,-0.4007l0.03838,-0.11512v-0.09786l-0.01558,-0.02336l0.01558,-0.0701v-0.06966l0.13932,-0.55728l0.12461,-0.56076l0.03116,-0.06231l0.01741,-0.06966l0.02084,-0.01191v-2.40476l0.09747,-0.38988l0.03082,-0.40069l0.03838,-0.11513v-0.76098l0.09747,-0.38987l0.03082,-0.4007l0.03838,-0.11512v-1.02195l-0.03838,-0.11512l-0.02519,-0.32754l-0.00583,-0.01167l-0.12461,-0.56075l-0.07265,-0.29062l-0.31667,-0.07917l-0.04202,-0.07354l-0.09473,-0.03383l-0.3705,-0.24699l-0.36854,-0.18427l-0.33145,-0.11049l-0.07165,-0.04559l-0.52839,-0.1321l-0.56075,-0.12461l-0.06231,-0.03116l-0.06966,-0.01741l-0.01394,-0.02438l-0.8541,-0.42705l-0.21994,-0.18852l-0.11927,-0.00917l-1.11512,-0.3717h-0.09431l-0.38987,-0.09747l-0.4007,-0.03082l-0.11512,-0.03838h-3.41397l-0.12305,0.02735l-0.55729,0.13932h-0.06966l-0.0701,0.01557l-0.02336,-0.01557h-0.08933l-0.59059,0.11811l-0.23825,-0.01135l-0.2948,0.09827l-0.4007,0.03082l-0.38987,0.09747h-0.48632l-0.12306,0.02735l-0.55728,0.13932h-0.06966l-0.0701,0.01557l-0.02336,-0.01557h-0.15654l-0.12306,0.02734l-0.55728,0.13932h-0.06966l-0.0701,0.01558l-0.02336,-0.01558h-2.00355l-0.38987,-0.09747l-0.4007,-0.03082l-0.11512,-0.03838h-0.42764l-0.38988,-0.09747l-0.40069,-0.03082l-1.31392,-0.43797l-0.80651,-0.13442l-0.1747,-0.07596l-0.1413,0.03533h-0.30776l-0.25119,0.06279l-0.27962,0.27962l-0.15223,0.09134l-0.25674,0.51346l-0.1001,0.40043l-0.04613,0.08649l-0.00752,0.09774l-0.16666,0.5l-0.09661,0.1518l-0.01641,0.07386v0.25677l-0.0859,0.34362c0.10377,0.27466 0.16055,0.57238 0.16055,0.88338v0.66666l-0.05068,0.20271l0.01666,0.20829l-0.13265,0.79591v1.22073l0.20504,0.61513l0.00752,0.09774l0.04613,0.08649l0.08801,0.35208l0.00746,0.00427l0.01741,0.06966l0.03116,0.06231l0.12461,0.56075l0.13932,0.55729v0.06966l0.01558,0.0701l-0.01558,0.02336v1.83688l-0.07465,0.29857v0.30776l-0.09202,0.36809v0.3589l-0.09747,0.38988l-0.03082,0.40069l-0.03838,0.11513v0.0943l-0.06039,0.24157l0.01184,0.24872l-0.16667,0.83333l-0.06762,0.14277l-0.01211,0.15751l-0.03838,0.11513v0.67973c4.91636,-1.23419 10.11094,-1.52854 15.16666,-1.53543c1.63663,0.0028 3.36753,0.00541 4.99302,0.20579l0.12508,-0.08339c0,0 0.7276,-0.1819 0.9095,0.5457c0.1819,0.72761 -0.5457,0.9095 -0.5457,0.9095l-0.67493,0.11661c-1.56074,-0.19812 -3.23564,-0.19724 -4.80697,-0.19421c-5.1525,-0.00779 -10.4643,0.30464 -15.44458,1.65774l-0.08944,0.53659l-0.04063,0.09345v0.1019l-0.15223,0.60895l-0.155,0.775l-0.02609,0.05509v0.06096l-0.15224,0.60895l-0.155,0.775l-0.06762,0.14276l-0.01212,0.15752l-0.10464,0.31391l-0.1004,0.60243v1.27945zM247.61477,144.64872c-1.5745,-2.16962 -3.98748,-0.02389 -4.77555,1.76794h2.07745l0.38988,0.09747l0.40069,0.03082l0.11513,0.03838h0.0943l0.38988,0.09747l0.40069,0.03082l0.98168,0.32723c-0.00115,-0.78843 0.0943,-2.15801 -0.07415,-2.39014zM246.05,142.7c1.00427,0.00597 2.25225,0.1511 2.83523,1.15128c0.49588,0.85074 0.1804,2.39026 0.30898,3.4057l0.00579,0.29303c0,0 0,0.02742 -0.00524,0.07176l0.323,0.1938l0.04647,0.04647l0.19944,0.09972l0.37694,0.09423l0.56075,0.12462l0.06231,0.03115l0.06966,0.01741l0.01393,0.02438l0.02853,0.01426l0.33145,0.11048l0.15181,0.09661l0.17565,0.03903l0.66667,0.33334l0.11995,0.10281l0.14878,0.05313l0.02435,0.01623l0.14618,0.03654l0.56075,0.12462l0.06231,0.03115l0.06966,0.01741l0.01393,0.02438l0.52077,0.26038l0.15498,0.13284l0.12453,0.00691l0.32251,0.37627l0.37627,0.32251l0.00691,0.12453l0.13284,0.15498l0.16666,0.33334l0.03903,0.17565l0.09661,0.15181l0.16666,0.5l0.03082,0.40069l0.09747,0.38988v0.33845c0.11504,-0.00115 0.23447,-0.00267 0.3589,-0.00512c1.94257,-0.03823 3.53934,-1.08971 5.2422,0.23224c2.38094,1.84833 1.14927,5.39417 0.4932,7.72387c-1.07457,3.81586 -1.23531,8.20467 -6.76098,7.37723c-0.13504,-0.02022 -0.26868,-0.04222 -0.39979,-0.06751l-0.03101,0.12406l-0.03082,0.40069l-0.03838,0.11513v0.43119l0.01558,0.02336l-0.01558,0.0701v0.06966l-0.13932,0.55729l-0.02734,0.12305v0.48988l0.01558,0.02336l-0.01558,0.0701v0.06966l-0.13932,0.55728l-0.02734,0.12306v0.58064l0.03838,0.11512l0.03082,0.4007l0.09747,0.38987v5.01668c0.31918,-0.14909 0.65376,-0.2756 0.99623,-0.37575c2.03086,-0.59395 4.33918,-0.26177 5.35794,1.77575c1.22796,2.45592 0.34762,9.39085 -0.45143,11.36803c-0.79802,1.97461 -4.26869,2.43584 -6.38996,1.47195l-0.01278,0.05112v0.02557l-0.13932,0.55728l-0.12461,0.56076l-0.03116,0.06231l-0.01741,0.06966l-0.02438,0.01393l-0.24562,0.49124l0.00263,0.03823l-0.43504,0.47854l-0.42088,0.49104l-0.03826,0.00213l-0.47253,0.31502l-0.14877,0.05313l-0.11995,0.10281l-0.33333,0.16666l-0.83853,0.18634l-0.13975,0.09317l-0.13976,-0.03106l-0.13976,0.03106l-0.13976,-0.09317l-0.23066,-0.05126l-0.21683,0.05421h-0.30776l-0.29857,0.07464h-0.83334l-0.09758,-0.02439l-0.07576,0.03788l-0.53034,-0.1894l-0.54632,-0.13658l-0.04202,-0.07354l-0.09473,-0.03383l-0.12018,-0.08013h-1.25403l-0.44657,0.14886l-0.84109,0.42055l-0.17565,0.03903l-0.15181,0.09661l-0.5,0.16666l-0.4007,0.03082l-0.38987,0.09747h-3l-0.38987,-0.09747l-0.4007,-0.03082l-0.11513,-0.03838h-0.26097l-0.29857,-0.07465h-0.30777l-0.36809,-0.09202h-0.19224l-0.24157,-0.06039l-0.24872,0.01184l-0.59059,-0.11812h-0.41912l-0.24157,-0.06039l-0.24872,0.01184l-0.59059,-0.11812h-0.91912l-0.29857,-0.07465h-0.30776l-0.36809,-0.09202h-2.19224l-0.24157,-0.06039l-0.24872,0.01184l-0.59059,-0.11812h-0.25245l-0.45934,-0.11483l-0.46913,-0.06397l-0.83334,-0.33334l-0.212,-0.15311l-0.24627,-0.08796l-0.22143,-0.14762l-0.18239,-0.0608l-0.15181,-0.09661l-0.17565,-0.03903l-0.17442,-0.08721l-0.1767,-0.0589l-0.0271,0.00739l-0.06157,-0.03695l-0.06609,-0.02202l-0.48462,-0.3084l-0.49257,-0.29555l-0.04926,-0.04925l-0.06058,-0.03855l-0.00551,-0.02754l-0.10265,-0.10265l-0.02754,-0.0055l-0.03855,-0.06058l-0.04926,-0.04925l-0.29555,-0.49258l-0.30839,-0.48462l-0.02203,-0.06608l-0.03695,-0.06157l0.00739,-0.02709l-0.0589,-0.1767l-0.25387,-0.50776l-0.07244,-0.32597l-0.14294,-0.30178l-0.10101,-0.50504l-0.072,-0.144c-0.06082,0.00507 -0.12152,0.00766 -0.18196,0.00766c-6.34321,0 -7.53713,-7.19366 -6.29092,-12.17849c0.23626,-0.94503 2.52529,-3.49386 3.76046,-2.67042h1.17022v-1.66666l0.05068,-0.20272l-0.01666,-0.20828l0.16666,-1l0.07907,-0.18186l0.01521,-0.19771l0.11745,-0.35235l0.13614,-0.68071l0.02609,-0.05509v-0.06096l0.15223,-0.60895l0.155,-0.775l0.02609,-0.05509v-0.06096l0.14246,-0.56981l0.15025,-0.90152l0.04063,-0.09345v-0.1019l0.09203,-0.36809v-0.24647c-1.83943,-0.07135 -3.96321,-1.04904 -4.85417,-2.0291c-1.57622,-1.73384 -1.60462,-9.74576 0.00754,-11.12761c0.88383,-0.75757 3.17941,-1.23548 5.13972,-1.29478l0.01289,-0.05156l0.12461,-0.56075l0.03116,-0.06231l0.01741,-0.06966l0.02438,-0.01393l0.01426,-0.02853l0.08013,-0.24036l0.14338,-0.57352l0.12956,-0.24293l0.05972,-0.26876l0.66667,-1.33333l0.13284,-0.15498l0.00692,-0.12454l0.37626,-0.32251l0.32251,-0.37626l0.12454,-0.00692l0.05161,-0.04424l0.33828,-0.33828l0.00551,-0.02754l0.06058,-0.03855l0.04925,-0.04925l0.49257,-0.29555l0.48462,-0.3084l0.06609,-0.02202l0.06157,-0.03695l0.02709,0.00739l0.1767,-0.0589l0.02853,-0.01426l0.01393,-0.02438l0.06966,-0.01741l0.06231,-0.03115l0.56076,-0.12462l0.27279,-0.0682c-0.11017,-0.25145 -0.04312,-0.51969 -0.04312,-0.51969c0.23046,-0.80561 1.17546,-2.83982 1.9679,-3.27621c2.62284,-1.44439 6.36363,2.05156 6.5097,4.35811l-0.00833,0.03958l0.02499,-0.00625h0.06966l0.0701,-0.01558l0.02336,0.01558h0.15654l0.12306,-0.02735l0.55728,-0.13932h0.06966l0.0701,-0.01557l0.02336,0.01557h0.26452l0.11513,-0.03838l0.4007,-0.03082l0.38987,-0.09747h0.08578l0.59059,-0.11812l0.24872,0.01184l0.24157,-0.06039h0.153l0.12306,-0.02735l0.55728,-0.13932h0.06966l0.0701,-0.01557l0.02336,0.01557h0.29421c0.50229,-2.57058 1.9811,-3.73368 4.84267,-3.71667zM234.9,147.05c0.12403,-0.84413 -0.58292,-0.74206 -1.08058,-1.49396c-1.39365,-2.10565 -3.88041,-1.9661 -4.42692,0.7l0.02416,-0.00604h0.17022l0.02336,-0.01558l0.0701,0.01558h0.06966l0.29857,0.07465h0.05023l0.01582,0.01651l0.19266,0.04817l0.54336,0.12074l0.64369,0.10728l0.18186,0.07907l0.19772,0.01521l1.11512,0.37171h0.42764l0.38988,0.09747l0.40069,0.03082l0.11513,0.03838h0.50647z" fill="#000000"/><path d="M243.26819,180.69532c-0.0073,-0.00063 -0.01121,-0.00111 -0.01121,-0.00111c-2.19305,-0.27418 -6.58493,-1.34897 -8.66741,-0.27549c-1.5694,0.809 -2.13467,1.96443 -0.8191,3.31023c2.3604,0.97831 4.76869,0.72648 7.23293,0.5725c0.78904,-0.04931 2.38321,0.35036 3.08281,0.04648c2.4612,-1.06905 1.24269,-2.87984 -0.39955,-3.49568c-0.13949,-0.05231 -0.27898,-0.10461 -0.41846,-0.15693zM242.28763,179.04184c0.34724,-0.28793 0.79778,-0.06265 0.79778,-0.06265l0.32793,0.16857c0.26666,0.1 0.53334,0.2 0.8,0.3c2.97815,1.1168 3.9281,4.75561 0.40045,6.30432c-0.89253,0.39183 -2.54469,-0.01432 -3.51719,0.04648c-2.81376,0.1759 -5.50813,0.33134 -8.16708,-0.8275c-2.09018,-2.0639 -1.71046,-4.57024 0.9809,-5.88977c2.15593,-1.05702 5.74683,-0.43844 8.3772,-0.03944z" fill="#000000"/><path d="M248.52082,170.01459l0.16624,0.39667c0.06253,0.33339 0.1025,0.67006 0.12721,1.00854l0.05692,-0.01581l0.39685,1.42866c0.02079,0.06879 0.03198,0.14177 0.03198,0.21735c0,0.41422 -0.33578,0.75 -0.75,0.75c-0.28951,0 -0.54071,-0.16404 -0.66572,-0.40423l-0.36111,-0.66204c-0.13757,0.16285 -0.3433,0.26627 -0.57318,0.26627c-0.15635,0 -0.30154,-0.04784 -0.4217,-0.12969l-0.13286,1.06285c-0.04137,0.37508 -0.35934,0.66684 -0.74544,0.66684c-0.3277,0 -0.6063,-0.21016 -0.70839,-0.50305l-0.15762,-0.4203c-0.136,0.13789 -0.32501,0.22335 -0.53399,0.22335c-0.24537,0 -0.46322,-0.11784 -0.60005,-0.3c-0.38927,-0.00003 -0.70927,-0.29663 -0.74635,-0.67617l-0.0973,-0.87569c-0.02347,-0.13932 -0.06138,-0.30633 -0.10561,-0.49067c-0.03622,0.2132 -0.07545,0.42621 -0.1208,0.64069l0.21704,0.01973l-0.09931,1.09239c-0.03071,0.38602 -0.35369,0.68972 -0.74761,0.68972c-0.19404,0 -0.37087,-0.07369 -0.50403,-0.19461c-0.13706,0.17909 -0.35302,0.29461 -0.59597,0.29461c-0.35692,0 -0.65561,-0.24933 -0.73141,-0.58332l-0.04721,-0.18883c-0.09741,0.04627 -0.20637,0.07215 -0.32138,0.07215c-0.27785,0 -0.52041,-0.15109 -0.65,-0.37559v0.32558c0,0.41422 -0.33578,0.75 -0.75,0.75c-0.26658,0 -0.50069,-0.13909 -0.63369,-0.34866c-0.08275,0.03144 -0.17253,0.04866 -0.26631,0.04866c-0.35066,0 -0.64512,-0.24066 -0.72722,-0.56581c-0.13757,0.16259 -0.34312,0.26581 -0.57278,0.26581c-0.36345,0 -0.66652,-0.25853 -0.73534,-0.60172l-0.19526,-0.87866c-0.0332,-0.1344 -0.06791,-0.26239 -0.10278,-0.38644c-0.01941,0.55129 -0.04577,1.04669 -0.16366,1.57281l0.00157,0.00707l0.23968,0.02996l-0.09877,0.79013c-0.04137,0.37508 -0.35934,0.66684 -0.74544,0.66684c-0.36345,0 -0.66652,-0.25853 -0.73534,-0.60172l-0.1968,-0.88557l0.01427,-0.00317l-0.00654,-0.01021c-0.11045,0.06403 -0.23874,0.10068 -0.37559,0.10068c-0.3118,0 -0.57917,-0.19027 -0.69231,-0.46104l-0.23337,-0.52509l-0.17815,0.41568c-0.11084,0.27576 -0.38077,0.47045 -0.69617,0.47045c-0.22785,0 -0.43196,-0.1016 -0.56951,-0.26196l-0.02209,0.05891c-0.10209,0.29289 -0.3807,0.50305 -0.7084,0.50305c-0.3795,0 -0.69316,-0.28186 -0.74307,-0.64766c-0.09253,0.10253 -0.21299,0.17937 -0.34937,0.21857l-0.05903,0.82635c-0.02438,0.39219 -0.35019,0.70274 -0.74853,0.70274c-0.41422,0 -0.75,-0.33578 -0.75,-0.75c0,-0.96667 0,-3.03333 0,-4c0,0 0,-0.75 0.75,-0.75c0.75,0 0.75,0.75 0.75,0.75c0,0.10858 0,0.21716 0,0.32574l0.01184,-0.0592c0.06296,-0.35054 0.3695,-0.61653 0.73816,-0.61653c0.25017,0 0.47173,0.12248 0.60799,0.31076c0.10513,-0.05612 0.22519,-0.08793 0.35269,-0.08793c0.1344,0 0.26053,0.03534 0.36962,0.09725c0.01666,-0.08589 0.03115,-0.1695 0.04147,-0.24949l0.05719,-0.07223l-0.0312,-0.0117l0.29385,-0.78361c0.10209,-0.29289 0.3807,-0.50305 0.70839,-0.50305c0.36532,0 0.66963,0.26119 0.73639,0.60701l0.04644,0.21673c0.13536,-0.19561 0.3613,-0.32373 0.61718,-0.32373c0.20579,0 0.39223,0.08289 0.52775,0.2171c0.12265,-0.24719 0.37761,-0.4171 0.67226,-0.4171c0.23624,0 0.44697,0.10922 0.58444,0.27992l0.56556,0.69124v-0.72117v0c0,-0.41422 0.33578,-0.75 0.75,-0.75c0.34853,0 0.64154,0.23774 0.7257,0.5599l0.02548,0.08917c0.12515,-0.09362 0.28051,-0.14907 0.44882,-0.14907c0.14375,0 0.27805,0.04044 0.39215,0.11057c0.13627,-0.18816 0.35777,-0.31056 0.60785,-0.31056c0.2552,0 0.48064,0.12747 0.61611,0.3222l0.28826,0.40356c0.06237,-0.01681 0.12795,-0.02577 0.19563,-0.02577c0.09037,0 0.17702,0.01599 0.25725,0.04528c0.05094,-0.36464 0.36408,-0.64528 0.74275,-0.64528c0.2994,0 0.55783,0.17544 0.67809,0.42912l0.14925,0.2985c0.05193,-0.19923 0.10248,-0.3878 0.14506,-0.55952l0.19619,-0.78478c0.07579,-0.33399 0.37449,-0.58332 0.73141,-0.58332c0.3277,0 0.6063,0.21016 0.70839,0.50305l0.29385,0.78361l-0.17735,0.0665c0.09053,0.18835 0.1681,0.37546 0.23589,0.56412c0.02011,0.00439 0.03991,0.00959 0.05937,0.01556c0.11949,-0.25568 0.37897,-0.43284 0.67983,-0.43284c0.24849,0 0.46876,0.12085 0.60524,0.30698l0.42475,0.56633l0.2468,-0.82268c0.08731,-0.31744 0.37803,-0.55063 0.72321,-0.55063c0.34518,0 0.6359,0.23319 0.72321,0.55063l0.09617,0.32058c0.1196,0.05637 0.22189,0.14341 0.29673,0.25099l0.1951,0.27314c0.50641,-0.08716 0.7596,0.41924 0.7596,0.41924z" fill="#ff8484"/><path d="M248.75,185.4c-0.01763,0 -0.03484,-0.00042 -0.05165,-0.00123c-0.00015,0.00226 -0.0003,0.00451 -0.00045,0.00678l-0.00426,0.00866l0.0035,0.00032l-0.09953,1.09571c-0.03068,0.38605 -0.35368,0.68976 -0.74761,0.68976c-0.11694,0 -0.22763,-0.02677 -0.32628,-0.0745c0.04619,0.09978 0.06171,0.17742 0.06171,0.17742l0.09217,0.82898l-0.19619,0.78478c-0.07579,0.33399 -0.37449,0.58332 -0.73141,0.58332c-0.21731,0 -0.41303,-0.09242 -0.55,-0.2401l-1.43936,0.48554c-0.02299,-0.06696 -0.02725,-0.17506 -0.02639,-0.2869l-0.10617,0.21233c-0.12026,0.25368 -0.37869,0.42912 -0.67809,0.42912c-0.3118,0 -0.57916,-0.19027 -0.69231,-0.46104l-0.39305,-0.88435l0.00549,-0.00244l-0.01425,-0.01806c-0.01943,-0.05572 -0.04083,-0.11085 -0.06407,-0.16532l-0.00392,0.01539l-0.19766,1.08713c-0.05797,0.35654 -0.36732,0.6287 -0.74024,0.6287c-0.2994,0 -0.55782,-0.17544 -0.67808,-0.42912l-0.59274,-1.18547l0.03689,-0.01844c-0.35102,-0.93053 0.24774,0.45543 -0.43162,0.69545c-0.0683,0.02413 -0.12888,0.01355 -0.18445,-0.01967v1.00725c0,0.41422 -0.33578,0.75 -0.75,0.75c-0.3118,0 -0.57916,-0.19027 -0.69231,-0.46104l-0.39305,-0.88435l0.01595,-0.00709l-0.03386,-0.03693c-0.05032,-0.1832 -0.05087,-0.51229 -0.05546,-0.80442l-0.03044,0.08372c-0.10004,0.29657 -0.3805,0.51012 -0.71082,0.51012c-0.2994,0 -0.55782,-0.17544 -0.67808,-0.42912l-0.41826,-0.8365c-0.04951,0.00229 -0.12195,0.05134 -0.1275,0.09577c0,0 -0.10921,0.13105 -0.28596,0.21606c0.1883,0.63915 0.26605,1.32314 0.3477,1.76963l0.03292,-0.00124c0,0 0.33541,0.67082 -0.33541,1.00623c-0.67082,0.33541 -1.00623,-0.33541 -1.00623,-0.33541l-0.16708,-0.40124c-0.24305,-1.34508 -0.20269,-2.17586 -0.48793,-1.91708l-0.13234,0.79406c-0.0537,0.36151 -0.36537,0.63886 -0.74182,0.63886c-0.34518,0 -0.6359,-0.23319 -0.72321,-0.55063l-0.1681,-0.56033l-0.1782,0.2673c-0.13354,0.20677 -0.36603,0.34365 -0.63049,0.34365c-0.19404,0 -0.37088,-0.07369 -0.50404,-0.19461c-0.13706,0.17909 -0.35302,0.29461 -0.59596,0.29461c-0.3154,0 -0.58534,-0.19469 -0.69617,-0.47045l-0.29319,-0.68411l0.02893,-0.0124l-0.05341,-0.05298c-0.08235,-0.36561 -0.16885,-0.73132 -0.26041,-1.09625l-1.35335,0.34808c-0.42694,-1.70855 -1.02397,-3.28602 -0.97805,-4.80418c-0.48202,-1.708 -0.78352,-3.68033 -0.06517,-5.21313c0,0 0.33541,-0.67082 1.00623,-0.33541c0.28027,0.14013 0.3849,0.33881 0.41172,0.52266c0.01746,-0.00122 0.03509,-0.00183 0.05287,-0.00183c0.28397,0 0.53108,0.15782 0.65841,0.39053l0.39278,0.68736l-0.08147,0.04656l0.16201,0.16101c-0.06741,1.21657 -0.16311,2.30501 -0.37738,3.38832c0.23852,0.13896 0.34201,0.39768 0.34201,0.39768c0.28352,0.71019 0.5372,1.43594 0.76423,2.17068c0.12348,-0.08942 0.27529,-0.14213 0.43941,-0.14213c0.3277,0 0.6063,0.21016 0.70839,0.50305l0.29385,0.7836l-0.15151,0.05682c0.16572,0.31214 0.30508,0.63629 0.40663,0.97103c0.03506,-0.04852 0.08303,-0.0809 0.15014,-0.08938c0.28333,-0.0358 0.54735,0.07427 0.80671,0.21948c0.00976,-0.36763 0.33504,-0.63023 1.44764,-0.54205c0.3312,0.02625 0.59823,0.15422 0.81526,0.34893c0.62341,-0.41318 1.60971,-0.33976 2.27778,-0.00606l-0.03148,0.24285l0.13646,-0.06822c0.34264,-0.7063 0.78913,-0.49069 1.18734,0.03198c0.12582,-0.09542 0.28269,-0.15204 0.45278,-0.15204c0.17157,0 0.32969,0.05761 0.45606,0.15454l0.25098,0.18823c0.01227,-0.29381 -0.08714,-0.69263 0.14687,-0.70126c0.55794,-0.02057 1.01728,0.40831 1.49987,0.73127c0.07091,-0.12805 0.19511,-0.28339 0.39869,-0.34851c-0.11807,-0.1962 -0.237,-0.55041 0.1172,-0.90461c0.53033,-0.53033 1.06066,0 1.06066,0c0.45392,0.46756 0.84942,1.01472 1.10887,1.61352c0.36014,-0.62585 0.8605,-0.40561 1.2998,0.09767c0.08981,-0.03633 0.19437,-0.05508 0.31368,-0.04078c-0.08497,-0.22558 -0.16996,-0.45115 -0.25493,-0.67673c0,0 -0.26334,-0.70225 0.4389,-0.96559c0.45336,-0.17001 0.72379,0.06242 0.85854,0.24853c0.12468,-0.00651 0.22929,0.01477 0.31681,0.05279c-0.03988,-0.09162 -0.062,-0.19276 -0.062,-0.29907v-1.3h0.10954c0.0172,-0.47051 -0.01985,-1.1257 -0.05011,-1.83267c-0.15891,-0.13753 -0.25943,-0.34069 -0.25943,-0.56733v-0.8h0.17575l0.00648,-0.02613c-0.12106,-0.73173 -0.08176,-1.40309 -0.08147,-2.40785l0.01531,-0.03274l-0.013,-0.00118l0.09931,-1.09239c0.01952,-0.24541 0.15716,-0.45754 0.35607,-0.57952c0.01396,-0.17571 0.02871,-0.35171 0.04462,-0.52809c0,0 0.0679,-0.74692 0.81482,-0.67902c0.74692,0.0679 0.67902,0.81482 0.67902,0.81482c-0.09757,1.06475 -0.15462,2.11652 -0.24728,3.17275c0.08286,0.07407 0.14916,0.16628 0.19267,0.27039l0.39305,0.88435l-0.12937,0.05749c0.25218,0.49614 0.29268,0.97566 0.294,1.94711v0.9c0,0 0,0.75 -0.75,0.75z" fill="#d97171"/><path d="M244.95,178.9c-0.41461,0 -0.60002,-0.22921 -0.68293,-0.4342c-0.47521,0.00585 -1.93731,0.14024 -2.61707,0.1342c-0.8674,-0.00771 -2.51233,-0.30002 -3.18007,-0.75426c-0.32532,-0.2213 -0.54388,0.64459 -0.92811,0.72931c-0.52353,0.11543 -1.07785,-0.33998 -1.59566,-0.20116c-0.57639,0.15453 -0.87174,0.9893 -1.46738,1.02555c-0.39241,0.02389 -0.5927,-0.523 -0.92898,-0.72666c-0.27268,-0.16515 -0.47412,0.00109 -0.6463,0.30577l0.35134,0.12775l-0.39402,1.08357c-0.10004,0.29657 -0.38049,0.51012 -0.71082,0.51012c-0.22091,0 -0.41952,-0.09551 -0.55678,-0.24749l-0.09681,0.87132c-0.03708,0.37956 -0.35711,0.67617 -0.74641,0.67617c-0.41422,0 -0.75,-0.33578 -0.75,-0.75v-1c0,0 0,-0.21584 0.11579,-0.41594c-0.26519,-0.68969 -0.03676,-1.67048 0.79588,-1.89518c0.38868,-0.10489 0.75193,0.17228 1.11774,0.41101c0.10825,-0.76737 0.85957,-1.31482 1.92079,-1.12267c0.26953,0.0488 0.20146,0.6247 0.47102,0.67334c0.19189,0.03463 0.03698,-0.42784 0.18479,-0.55501c0.41221,-0.35464 1.51784,-0.60408 2.0317,-0.5404c1.57399,0.19508 3.97379,-0.20305 5.67439,-0.20419c0.50741,-0.00034 0.84473,1.06524 1.28591,0.81461c0.31087,-0.1766 0.3413,-0.81446 0.69883,-0.81368c0.47951,0.00105 0.789,0.54519 1.1835,0.81778l0.21967,0.73033c0,0 0,0.75 -0.75,0.75zM231.5,180.42222l0.07407,0.00823c-0.0276,-0.03305 -0.05241,-0.06852 -0.07407,-0.10604zM244.41708,178.47644l0.00259,0.00389c-0.00006,-0.00141 -0.00093,-0.0027 -0.00259,-0.00389z" fill="#d97171"/><path d="M246.96151,165.11283c0.23717,0.71151 -0.47434,0.94868 -0.47434,0.94868l-0.80051,0.09073c-0.5797,-0.21889 -1.14136,-0.48748 -1.68599,-0.78361l-1.04611,0.27073c-1.44983,-0.71792 -2.28486,1.04986 -3.96446,0.25824c-0.56175,0.18094 -1.10317,0.69537 -1.67843,0.56352c-0.31196,-0.07151 -0.28807,-0.58382 -0.51264,-0.81186c-0.51748,-0.52547 -2.04042,1.51915 -2.38229,-0.42738c-0.07792,-0.44367 -0.57979,0.90244 -1.02945,0.87549c-0.32897,-0.01971 -0.40458,-0.54029 -0.68574,-0.71221c-0.4226,-0.2584 -0.49164,1.14629 -0.98577,1.11195c-0.54348,-0.03778 -0.9351,-0.60658 -1.25374,-1.04846c-0.08255,-0.11447 -0.11616,-0.35635 -0.11654,-0.58586c-0.31285,0.25528 -0.90756,0.41379 -1.23381,0.29834c-1.34562,-0.47617 -1.25148,-1.58165 -0.82504,-2.57962l-0.24148,-0.08781l0.39402,-1.08357c0.0626,-0.18558 0.19585,-0.33865 0.36775,-0.42723c0.06346,-0.33846 0.13149,-0.67661 0.21547,-1.01479c0,0 0.1819,-0.72761 0.9095,-0.5457c0.72761,0.1819 0.5457,0.9095 0.5457,0.9095c-0.20424,0.81091 -0.30644,1.62414 -0.48738,2.4412l-0.12051,0.90383c0.25015,-0.28531 0.61283,-0.85109 0.91342,-0.76502c0.40554,0.11613 0.76571,0.9482 0.91344,1.54852c0.30963,-0.3056 0.92811,-0.56401 1.30189,-0.54559c0.28591,0.01409 0.25304,0.57069 0.51425,0.68778c0.5261,0.23583 1.01887,-0.89195 1.57056,-0.72451c0.2875,0.08726 0.11412,0.61008 0.29066,0.85319c0.21615,0.29764 0.6036,-0.51104 0.97121,-0.52394c0.55486,-0.01948 1.00005,0.49703 1.44318,0.83151c0.39026,0.29457 0.84413,-0.53103 1.32157,-0.63648c1.67701,0.66351 2.56268,-0.87634 4.43553,-0.14176l-0.03085,-0.28146c0,0 0.25714,-0.12857 0.53261,-0.06731c0.29247,-0.07002 0.56703,0.0825 0.56703,0.0825c0.51447,0.28725 1.04687,0.54791 1.59912,0.75338l-0.20051,-0.10927c0,0 0.71151,-0.23717 0.94868,0.47434z" fill="#d97171"/><path d="M236.986,154.3525c0.3975,0.636 -0.2385,1.0335 -0.2385,1.0335l-1.37278,0.59323c-0.20478,-0.33453 -0.32664,-0.73702 -0.61435,-1.0036c-0.45021,-0.41715 -1.0555,1.06095 -1.63249,0.85168c-0.08764,-0.03179 -0.1681,-0.10352 -0.23809,-0.19946c-0.39323,0.65434 -1.05225,1.31529 -1.57412,1.37137c-0.46865,0.05036 -0.86931,-0.43044 -1.07395,-0.98833c-0.13725,0.17596 -0.35127,0.28911 -0.59172,0.28911c-0.41422,0 -0.75,-0.33578 -0.75,-0.75v-0.8h0.01295l-0.0123,-0.03117c0.03398,-0.41037 0.06796,-0.82074 0.10194,-1.23111c0,0 0.06229,-0.74741 0.8097,-0.68512c0.30221,0.02518 0.47204,0.16239 0.56713,0.31689c0.0548,-0.01274 0.1119,-0.01949 0.17058,-0.01949c0.3893,0 0.70933,0.29661 0.74641,0.67617l0.09116,0.82036c0.00305,0.00833 0.00607,0.01706 0.00904,0.02616c0.31212,-0.84788 1.20818,-1.86342 1.61206,-1.82039c0.34986,0.03727 0.72134,0.69043 0.87541,1.17774c0.32216,-0.28452 0.93075,-0.54551 1.25555,-0.45567c0.37132,0.1027 0.39044,0.66427 0.58565,0.9964l0.22722,-0.40677c0,0 0.636,-0.3975 1.0335,0.2385z" fill="#d97171"/><path d="M248.69882,155.22211c-0.11916,-0.21305 -0.22496,-0.43424 -0.3183,-0.66094c-0.05534,0.03977 -0.09511,0.05966 -0.09511,0.05966l-1.13541,0.47918c-0.77593,-0.32746 -1.37767,-1.59708 -2.16602,-1.30077c-0.38244,0.14374 -2.15847,1.10774 -2.83353,0.99414c-0.33478,-0.05634 -0.2978,-0.83522 -0.63503,-0.79622c-0.33417,0.03863 -0.13181,0.74301 -0.41906,0.91809c-1.97609,1.20448 -3.6639,-0.54476 -4.07397,-2.18333c0,0 -0.1819,-0.7276 0.5457,-0.9095c0.72761,-0.1819 0.9095,0.5457 0.9095,0.5457c0.17795,0.71255 0.50007,2.26548 1.92604,1.21667c0.39215,-0.28843 0.49904,-1.01302 0.98094,-1.08191c0.41441,-0.05923 0.57841,0.64311 0.96497,0.80378c0.48791,0.20278 0.83785,-0.80437 1.36622,-0.80374c1.00071,0.00119 2.0524,0.14289 3.43424,1.09711l0.46459,-0.32082c0,0 0.17396,-0.08698 0.389,-0.08376c0.01114,-0.22949 0.11059,-0.57242 0.58371,-0.67755c0.73214,-0.1627 0.89484,0.56944 0.89484,0.56944c0.07151,0.33842 0.17419,0.67483 0.31517,0.99239c0.00329,-0.00638 0.00669,-0.0128 0.01021,-0.01924c0.02734,-0.19898 0.15418,-0.66045 0.74248,-0.66045c0.75,0 0.75,0.75 0.75,0.75c0,0.3 0,0.6 0,0.9v0.2c0,0 0,0.36943 -0.25928,0.58973c-0.11059,1.3399 -0.14716,2.38444 -0.61125,3.47009l0.23205,0.07735l-0.29453,0.8836c-0.07309,0.23766 -0.2611,0.42498 -0.49917,0.49712c-0.04468,0.48721 -0.10994,0.98422 -0.26987,1.38152l0.07967,0.31869l-0.03705,0.00926c0.01794,0.027 0.03588,0.05401 0.05382,0.08101l-0.03304,0.09163h0.03866v1c0,0.41422 -0.33578,0.75 -0.75,0.75c-0.02845,0 -0.05652,-0.00158 -0.08414,-0.00467l-0.33777,0.67554c-0.12026,0.25368 -0.37869,0.42912 -0.67809,0.42912c-0.41422,0 -0.75,-0.33578 -0.75,-0.75c0,-0.05572 0.00607,-0.11002 0.0176,-0.16227l0.19697,-0.98481c0,0 0.08572,-0.4286 0.45347,-0.56598c0.01006,-0.08807 0.02693,-0.17312 0.04957,-0.25143l0.19215,-1.0568c0.02159,-0.13279 0.07806,-0.25388 0.15969,-0.35356c0.05787,-0.58136 0.20366,-1.22512 0.34491,-2.07118l0.01194,-0.02097l-0.00709,-0.00164l0.29661,-1.28531c0.05255,-0.25185 0.23141,-0.45734 0.46732,-0.54718c0.05834,-0.85813 0.26276,-1.79524 0.32058,-2.3735l0.02358,-0.1661z" fill="#d97171"/><path d="M245.72862,159.00228c-0.17373,0.6582 -0.17152,1.08782 -0.35524,1.60648l0.27887,0.10458l-0.29385,0.7836c-0.10209,0.29289 -0.3807,0.50305 -0.70839,0.50305c-0.36115,0 -0.66268,-0.25527 -0.73401,-0.59521c-0.10826,0.06064 -0.23308,0.09521 -0.36599,0.09521c-0.30924,0 -0.57476,-0.18715 -0.68949,-0.45437l-0.0944,0.13217c-0.13547,0.19474 -0.36091,0.3222 -0.61611,0.3222c-0.3567,0 -0.65523,-0.249 -0.73127,-0.58266l-0.09346,-0.37237l-0.0791,0.18458c-0.11084,0.27576 -0.38077,0.47045 -0.69617,0.47045c-0.15461,0 -0.29829,-0.04678 -0.41766,-0.12696l-0.30973,0.36135c-0.13757,0.16247 -0.34305,0.26561 -0.57262,0.26561c-0.36345,0 -0.66652,-0.25853 -0.73534,-0.60172l-0.01128,-0.05077c-0.12592,0.0957 -0.28302,0.15249 -0.45337,0.15249c-0.32431,0 -0.60055,-0.20584 -0.70518,-0.49401c-0.30395,0.32449 -0.67388,0.60815 -1.01573,0.86073l-0.4167,-1.02104c-0.00418,0.01382 -0.0086,0.02748 -0.01328,0.04095c-0.01233,0.03546 -0.02545,0.07057 -0.03928,0.10533l0.02561,0.00512l-0.19727,0.98638c-0.06296,0.35054 -0.3695,0.61653 -0.73816,0.61653c-0.19209,0 -0.36731,-0.07221 -0.5,-0.19098c-0.13269,0.11876 -0.30791,0.19098 -0.5,0.19098c-0.3893,0 -0.70933,-0.29661 -0.74641,-0.67617l-0.01084,-0.09757c-0.22643,0.39772 -0.6067,0.92183 -0.83891,1.14763l-0.44231,-1.6549c0.00987,-0.04291 0.01974,-0.08583 0.02961,-0.12874c-0.44406,-0.25304 -0.71841,-0.62619 0.24739,-1.07554c0.01022,-0.04445 0.02045,-0.08891 0.03068,-0.13336c0,0 0.16864,-0.7308 0.89944,-0.56215c0.43852,0.10119 0.55318,0.40482 0.57475,0.63148c0.07448,0.0468 0.1488,0.09742 0.22308,0.14851c0.01318,-0.05248 0.02875,-0.10261 0.04605,-0.14898l0.03066,-0.02862l-0.014,-0.007l0.39273,-0.78546c0.05003,-0.10554 0.12398,-0.19754 0.21483,-0.26899c0.43261,-0.89209 1.3893,-1.43618 2.22228,-0.18515l0.0448,-0.10453c0.11084,-0.27576 0.38077,-0.47045 0.69617,-0.47045c0.3277,0 0.6063,0.21016 0.70839,0.50305l0.023,0.06133c0.12838,-0.10286 0.2913,-0.16438 0.4686,-0.16438c0.26352,0 0.49529,0.1359 0.62905,0.34144l0.03954,-0.15813c0.07579,-0.33399 0.37449,-0.58332 0.73141,-0.58332c0.00992,0 0.01979,0.00019 0.02962,0.00057c0.2655,-0.73505 0.96086,-1.14278 2.00248,0.14576c0.06377,0.07889 0.11503,0.16431 0.15706,0.25453c0.13392,-0.12463 0.31348,-0.20086 0.51084,-0.20086c0.23703,0 0.44839,0.10996 0.58582,0.28166c-0.00313,-0.01144 -0.00626,-0.02288 -0.0094,-0.03431c0,0 -0.19734,-0.72358 0.52624,-0.92092c0.54799,-0.14945 0.79415,0.2293 0.88135,0.42192l1.2275,0.26449c0,0 0.20373,0.61118 -0.3329,0.88945z" fill="#bcd8ff"/><path d="M244.15,181.9c0.41422,0 0.75,0.33578 0.75,0.75c0,0.36202 -0.25651,0.66414 -0.59769,0.73452c0.09821,0.18103 0.26102,0.61798 -0.20231,0.96547c-0.6,0.45 -1.05,-0.15 -1.05,-0.15l-0.31585,-0.4383c-0.3724,0.15962 -0.73415,-0.1117 -0.73415,-0.1117l-0.38593,-0.2897c-0.17194,-0.26271 -0.62376,0.19649 -0.93197,0.13662c-0.39185,-0.07612 -0.49306,-0.86481 -0.73005,-1.13884l-0.14365,0.25138c-0.12733,0.23272 -0.37443,0.39053 -0.6584,0.39053c-0.36866,0 -0.6752,-0.266 -0.73816,-0.61653l-0.17055,-0.85273c-0.42086,-0.55455 -0.5502,1.87365 -1.5942,1.86926c-0.29667,-0.00125 -0.67804,-0.39357 -0.92802,-0.78552l-0.1521,0.45629c-0.09425,0.30647 -0.3796,0.52923 -0.71698,0.52923c-0.27283,0 -0.51164,-0.14568 -0.64288,-0.36351l-0.49312,-0.78899c0,0 -0.3975,-0.636 0.2385,-1.0335c0.08485,-0.05302 0.16544,-0.08766 0.24142,-0.10786c-0.0619,-0.29243 0.11068,-0.59672 0.86172,-0.84596c0.86619,-0.28745 1.45256,0.17413 1.60448,0.77797c0.06779,-0.37331 0.18686,-0.77445 0.3631,-0.92201c1.33805,-1.12034 1.56834,-0.35099 2.52515,0.5233c0.51337,0.19584 0.71625,1.28995 1.26954,1.16363c0.4307,-0.09833 0.91865,-0.12366 1.34592,0.00342c0.06062,-0.12041 0.16859,-0.23623 0.35077,-0.32733c0.67082,-0.33541 1.00623,0.33541 1.00623,0.33541c0.02286,0.04573 0.04573,0.09144 0.06859,0.13717c0.13737,-0.15446 0.33763,-0.25176 0.5606,-0.25176z" fill="#bcd8ff"/></g></g></svg>